<svg width="32" height="32" viewBox="0 0 32 32" fill="none" xmlns="http://www.w3.org/2000/svg">
<g clip-path="url(#clip0_4_102)">
<path d="M32 16C32 22.5363 28.0806 28.1569 22.4638 30.64L3.1925 25.5912C1.18813 22.9187 0 19.5981 0 16C0 7.16313 7.16375 0 16 0C24.8363 0 32 7.16313 32 16Z" fill="#30A7B6"/>
<path d="M10.5823 17.7006V13.8068H12.94L13.5887 16.1196L12.94 18.4326L10.5823 17.7006Z" fill="#FFC1A6"/>
<path d="M15.2974 13.8068H12.9399V16.762L14.1187 17.2161L15.2974 16.762V13.8068Z" fill="#FFC1A6"/>
<path d="M15.2974 16.762H12.9399V21.3877L15.674 20.6558L15.2974 16.762Z" fill="#FFC1A6"/>
<path d="M12.9397 4.51685C11.0337 4.51685 8.78122 5.54597 8.59778 8.33066C8.10491 8.42597 7.75478 9.07247 7.80991 9.59516L7.89441 10.7847C7.95222 11.3335 8.43472 11.7343 8.96647 11.6747L9.05816 11.6647C9.43041 12.6632 9.87453 13.3566 10.3412 13.8432C11.2411 14.7819 12.2255 14.9527 12.9398 15.0656C13.654 14.9527 14.8457 4.51685 12.9397 4.51685Z" fill="#FFDCC0"/>
<path d="M15.5384 13.8431C16.0051 13.3565 16.4491 12.6631 16.8214 11.6647L16.9131 11.6746C17.4448 11.7343 17.9273 11.3335 17.9851 10.7846L18.0696 9.5951C18.1248 9.07241 17.7746 8.42591 17.2818 8.3306C17.0984 5.54597 14.8459 4.51685 12.9399 4.51678V15.0655C13.6542 14.9527 14.6385 14.7818 15.5384 13.8431Z" fill="#FFDCC0"/>
<path d="M21.4705 19.7158V22.3898C19.7272 24.2223 17.3994 25.4933 14.7866 25.9053C14.1851 26.0001 13.5679 26.0493 12.9398 26.0493C12.3117 26.0493 11.6946 26.0001 11.0931 25.9053C8.48018 25.4933 6.15243 24.2223 4.40918 22.3898V19.7158C4.40918 18.0842 5.73168 16.7617 7.36324 16.7617H11.3681L12.9398 18.4325L14.5116 16.7617H18.5164C20.1479 16.7617 21.4705 18.0843 21.4705 19.7158Z" fill="white"/>
<path d="M18.5165 16.7618H14.5117L12.94 18.4326V26.0493C13.5584 26.0495 14.1758 26.0014 14.7867 25.9054C17.3996 25.4934 19.7273 24.2223 21.4707 22.3898V19.7158C21.4706 18.0843 20.148 16.7618 18.5165 16.7618ZM10.5108 15.6819L8.42847 16.762L10.6842 20.4271L12.9398 18.4326L10.5108 15.6819Z" fill="#E2E2E2"/>
<path d="M15.3689 15.6819L17.4513 16.762L15.1956 20.4271L12.9399 18.4326L15.3689 15.6819Z" fill="#C4C4C4"/>
<path d="M13.7359 3.36487H12.1438C11.3434 3.36485 10.5635 3.61833 9.91603 4.08893C8.68997 4.97999 8.11278 6.51593 8.4486 7.99399L8.84353 9.73199L9.6916 10.5516L10.1672 7.16931C11.2788 7.35124 12.4504 7.36299 12.9399 7.35849C13.4294 7.36299 14.601 7.35118 15.7127 7.16931L16.1882 10.5516L17.0363 9.73199L17.4312 7.99399C17.767 6.51599 17.1898 4.97999 15.9638 4.08893C15.3163 3.61832 14.5364 3.36485 13.7359 3.36487Z" fill="#595959"/>
<path d="M15.7125 7.16924L16.1881 10.5515L17.0361 9.73193L17.4311 7.99387C17.5571 7.43904 17.5566 6.86294 17.4296 6.30832C17.3026 5.75371 17.0523 5.23482 16.6973 4.79015C16.3424 4.34548 15.8918 3.98645 15.3791 3.7397C14.8665 3.49295 14.3048 3.36482 13.7358 3.36481H12.9399V7.35843C13.4294 7.36299 14.6009 7.35118 15.7125 7.16924Z" fill="#3F3F3F"/>
<path d="M22.9543 19.5613L22.4637 30.64C20.4868 31.5144 18.2999 32 15.9999 32C10.7618 32 6.11116 29.4825 3.19241 25.5913L2.92554 19.5613H22.9543Z" fill="#595959"/>
<path d="M22.4638 30.64L22.9544 19.5613H12.9399V31.7074C13.9483 31.9025 14.973 32.0004 16 32C18.3 32 20.4869 31.5144 22.4638 30.64Z" fill="#3F3F3F"/>
<path d="M12.9398 26.3796C13.7409 26.3796 14.3904 25.7302 14.3904 24.9291C14.3904 24.128 13.7409 23.4785 12.9398 23.4785C12.1387 23.4785 11.4893 24.128 11.4893 24.9291C11.4893 25.7302 12.1387 26.3796 12.9398 26.3796Z" fill="#E2E2E2"/>
<path d="M12.9399 23.4785V26.3796C13.741 26.3796 14.3904 25.7301 14.3904 24.9291C14.3904 24.128 13.741 23.4786 12.9399 23.4785Z" fill="#C4C4C4"/>
<path d="M27.746 11.1855V9.30816H26.7888C26.7099 9.01891 26.5945 8.74085 26.4456 8.48066L27.1228 7.80347L25.7953 6.47597L25.1181 7.15316C24.8579 7.00419 24.5798 6.88885 24.2906 6.80991V5.85266H22.4132V6.80991C22.1239 6.8888 21.8459 7.00414 21.5857 7.15316L20.9085 6.47597L19.581 7.80347L20.2582 8.48066C20.1092 8.74085 19.9939 9.01891 19.915 9.30816H18.9578V11.1855H19.915C19.9939 11.4748 20.1092 11.7528 20.2582 12.013L19.581 12.6902L20.9085 14.0177L21.5857 13.3405C21.8459 13.4895 22.1239 13.6048 22.4132 13.6837V14.641H24.2906V13.6837C24.5798 13.6048 24.8579 13.4895 25.1181 13.3405L25.7953 14.0177L27.1228 12.6902L26.4456 12.013C26.5945 11.7528 26.7099 11.4748 26.7888 11.1855H27.746ZM23.3518 11.8881C22.4454 11.8881 21.7106 11.1533 21.7106 10.2468C21.7106 9.34041 22.4454 8.6056 23.3518 8.6056C24.2583 8.6056 24.9931 9.34041 24.9931 10.2468C24.9931 11.1533 24.2583 11.8881 23.3518 11.8881Z" fill="white"/>
<path d="M30.5407 18.3826V17.0048H29.8382C29.7803 16.7926 29.6957 16.5885 29.5863 16.3976L30.0832 15.9007L29.1091 14.9265L28.6121 15.4234C28.4212 15.3141 28.2171 15.2294 28.0049 15.1715V14.469H26.6271V15.1715C26.4148 15.2294 26.2108 15.3141 26.0199 15.4234L25.5229 14.9265L24.5487 15.9007L25.0457 16.3976C24.9363 16.5885 24.8517 16.7926 24.7938 17.0048H24.0913V18.3826H24.7938C24.8517 18.5949 24.9363 18.7989 25.0457 18.9898L24.5487 19.4868L25.5229 20.461L26.0199 19.964C26.2108 20.0734 26.4149 20.158 26.6271 20.2159V20.9184H28.0049V20.2159C28.2171 20.158 28.4212 20.0734 28.6121 19.964L29.1091 20.461L30.0832 19.4868L29.5863 18.9898C29.6957 18.7989 29.7803 18.5949 29.8382 18.3826H30.5407ZM27.3161 18.7944C26.7082 18.7944 26.2154 18.3017 26.2154 17.6937C26.2154 17.0858 26.7082 16.5931 27.3161 16.5931C27.9239 16.5931 28.4167 17.0858 28.4167 17.6937C28.4167 18.3017 27.9239 18.7944 27.3161 18.7944ZM27.7459 11.1855V9.30816H26.7887C26.7098 9.01891 26.5945 8.74085 26.4455 8.48066L27.1227 7.80347L25.7952 6.47591L25.118 7.1531C24.8578 7.00413 24.5797 6.88879 24.2905 6.80985V5.85266H23.3518V8.6056C24.2582 8.6056 24.9931 9.34041 24.9931 10.2468C24.9931 11.1533 24.2582 11.8881 23.3518 11.8881V14.641H24.2905V13.6838C24.5797 13.6049 24.8578 13.4896 25.118 13.3406L25.7952 14.0178L27.1227 12.6903L26.4455 12.0131C26.5945 11.7529 26.7098 11.4749 26.7887 11.1856H27.7459V11.1855Z" fill="#E2E2E2"/>
<path d="M30.5408 18.3826V17.0049H29.8383C29.7805 16.7927 29.6958 16.5886 29.5865 16.3977L30.0834 15.9007L29.1092 14.9266L28.6123 15.4235C28.4214 15.3141 28.2173 15.2295 28.005 15.1716V14.4691H27.3162V16.5931C27.924 16.5931 28.4168 17.0859 28.4168 17.6938C28.4168 18.3017 27.924 18.7945 27.3162 18.7945V20.9185H28.005V20.216C28.2173 20.1581 28.4214 20.0735 28.6123 19.9641L29.1092 20.4611L30.0834 19.4869L29.5865 18.9899C29.6958 18.799 29.7805 18.595 29.8383 18.3827L30.5408 18.3826Z" fill="#C4C4C4"/>
</g>
<defs>
<clipPath id="clip0_4_102">
<rect width="32" height="32" fill="white"/>
</clipPath>
</defs>
</svg>
