<svg width="103" height="69" viewBox="0 0 103 69" fill="none" xmlns="http://www.w3.org/2000/svg">
<path fill-rule="evenodd" clip-rule="evenodd" d="M70.3417 2.55568C69.0878 2.55568 68.6826 0.891407 69.7631 0.179042C69.912 0.0808595 70.1985 0.00028762 70.4 3.58299e-06C70.6995 -0.000564492 70.833 0.0661843 71.1337 0.366885C71.4752 0.708487 71.5013 0.772964 71.5013 1.27751C71.5013 1.78205 71.4752 1.84653 71.1337 2.18813C70.8161 2.50578 70.7084 2.55568 70.3417 2.55568ZM63.8842 5.22733C64.0777 4.76293 64.6392 4.18567 65.1104 3.96668C65.5924 3.74267 66.3934 3.73509 66.8477 3.95021C67.8321 4.41641 68.4135 5.51752 68.2043 6.51913C67.9756 7.6147 67.3417 8.26638 66.3917 8.38746C66.2145 8.41962 66.0296 8.4277 65.8398 8.40834C64.9539 8.36841 64.3346 7.95236 63.9602 7.14828C63.6972 6.58361 63.6645 5.75488 63.8842 5.22733ZM39.9526 8.23027C40.6344 8.03362 42.3012 7.80573 44.423 7.61921C46.4249 7.44311 51.6227 7.49821 53.1335 7.71143C56.4817 8.18407 58.5827 8.91764 61.1198 10.4999C62.7101 11.4918 64.783 13.3863 65.7175 14.7021C66.5589 15.8869 67.2696 16.99 67.659 17.716C68.1808 18.6885 69.0596 21.1451 69.3823 22.533C69.7159 23.9676 69.86 26.5618 69.7221 28.6508C69.5877 30.6844 69.377 31.5778 68.4116 34.2078C68.251 34.6453 67.7681 35.6109 67.4809 36.0686C67.3653 36.2527 67.1534 36.6165 67.01 36.8769C66.5151 37.775 65.1073 39.531 64.0216 40.6043C61.9569 42.6455 60.1218 43.875 57.8405 44.7455C55.0085 45.8262 52.2926 46.0732 44.2337 45.9829C39.633 45.9314 39.0922 45.9088 38.3382 45.7368C35.1136 45.0014 32.6192 42.4121 31.7156 38.8624L31.4993 38.013V28.1664C31.4993 22.2578 31.485 19.7255 31.594 18.3206V18.3197L31.5941 18.3193C31.646 17.6519 31.7257 17.239 31.848 16.8391C31.9522 16.4984 32.0874 16.1672 32.2626 15.6962C32.7834 14.2966 32.9431 13.9829 33.6992 12.8757C35.2381 10.6222 37.5094 8.93497 39.9526 8.23027ZM44.6995 18.6926C46.7734 16.3756 47.6678 15.632 48.6225 15.4307C49.1654 15.3161 49.904 15.3954 50.5509 15.6374C51.214 15.8856 52.0359 16.6649 52.4361 17.4254C52.6911 17.9099 52.7075 18.0096 52.7075 19.0772C52.7075 20.693 52.659 20.7768 50.2319 23.3514C48.0093 25.7091 47.7698 26.0733 47.8609 26.957C47.8947 27.2844 48.0014 27.6045 48.1492 27.8217C48.2782 28.0112 49.2413 29.0611 50.2894 30.1546C52.6827 32.6519 52.805 32.8595 52.7964 34.4133C52.7934 34.9444 52.7831 35.2274 52.7326 35.4604C52.6478 35.7123 52.5409 35.9666 52.418 36.2038C52.0659 36.7887 51.4122 37.4379 50.9078 37.682C50.2534 37.9988 49.446 38.1122 48.7546 37.9844C47.7389 37.7968 47.3464 37.5056 45.407 35.5027C39.6998 29.6079 38.9511 28.8459 38.7304 27.9533C38.6933 27.8032 38.6711 27.6494 38.6428 27.4669C38.5152 26.6441 38.7053 25.4727 39.0665 24.8564C39.1964 24.6347 40.4228 23.2623 41.7919 21.8067C43.1609 20.3511 44.4693 18.9497 44.6995 18.6926Z" fill="#30A7B6"/>
<path d="M3.89648 49.7812V64H1.44531V49.7812H3.89648ZM12.4414 49.7812L6.67969 56.627L3.39844 60.1035L2.96875 57.6719L5.3125 54.7812L9.45312 49.7812H12.4414ZM9.80469 64L5.12695 57.2617L6.81641 55.5918L12.7148 64H9.80469ZM16.3672 49V64H14.0039V49H16.3672ZM24.9023 61.8809V56.8418C24.9023 56.4642 24.834 56.1387 24.6973 55.8652C24.5605 55.5918 24.3522 55.3802 24.0723 55.2305C23.7988 55.0807 23.4538 55.0059 23.0371 55.0059C22.653 55.0059 22.321 55.071 22.041 55.2012C21.7611 55.3314 21.543 55.5072 21.3867 55.7285C21.2305 55.9499 21.1523 56.2005 21.1523 56.4805H18.8086C18.8086 56.0638 18.9095 55.6602 19.1113 55.2695C19.3132 54.8789 19.6061 54.5306 19.9902 54.2246C20.3743 53.9186 20.8333 53.6777 21.3672 53.502C21.901 53.3262 22.5 53.2383 23.1641 53.2383C23.9583 53.2383 24.6615 53.3717 25.2734 53.6387C25.8919 53.9056 26.377 54.3092 26.7285 54.8496C27.0866 55.3835 27.2656 56.054 27.2656 56.8613V61.5586C27.2656 62.0404 27.2982 62.4733 27.3633 62.8574C27.4349 63.235 27.5358 63.5638 27.666 63.8438V64H25.2539C25.1432 63.7461 25.0553 63.4238 24.9902 63.0332C24.9316 62.6361 24.9023 62.252 24.9023 61.8809ZM25.2441 57.5742L25.2637 59.0293H23.5742C23.138 59.0293 22.7539 59.0716 22.4219 59.1562C22.0898 59.2344 21.8132 59.3516 21.5918 59.5078C21.3704 59.6641 21.2044 59.8529 21.0938 60.0742C20.9831 60.2956 20.9277 60.5462 20.9277 60.8262C20.9277 61.1061 20.9928 61.3633 21.123 61.5977C21.2533 61.8255 21.4421 62.0046 21.6895 62.1348C21.9434 62.265 22.2493 62.3301 22.6074 62.3301C23.0892 62.3301 23.5091 62.2324 23.8672 62.0371C24.2318 61.8353 24.5182 61.5911 24.7266 61.3047C24.9349 61.0117 25.0456 60.735 25.0586 60.4746L25.8203 61.5195C25.7422 61.7865 25.6087 62.0729 25.4199 62.3789C25.2311 62.6849 24.9837 62.9779 24.6777 63.2578C24.3783 63.5312 24.0169 63.7559 23.5938 63.9316C23.1771 64.1074 22.6953 64.1953 22.1484 64.1953C21.4583 64.1953 20.8431 64.0586 20.3027 63.7852C19.7624 63.5052 19.3392 63.1309 19.0332 62.6621C18.7272 62.1868 18.5742 61.6497 18.5742 61.0508C18.5742 60.4909 18.6784 59.9961 18.8867 59.5664C19.1016 59.1302 19.4141 58.7656 19.8242 58.4727C20.2409 58.1797 20.7487 57.9583 21.3477 57.8086C21.9466 57.6523 22.6302 57.5742 23.3984 57.5742H25.2441ZM32.0898 55.4453V64H29.7363V53.4336H31.9824L32.0898 55.4453ZM35.3223 53.3652L35.3027 55.5527C35.1595 55.5267 35.0033 55.5072 34.834 55.4941C34.6712 55.4811 34.5085 55.4746 34.3457 55.4746C33.9421 55.4746 33.5872 55.5332 33.2812 55.6504C32.9753 55.7611 32.7181 55.9238 32.5098 56.1387C32.3079 56.347 32.1517 56.6009 32.041 56.9004C31.9303 57.1999 31.8652 57.5352 31.8457 57.9062L31.3086 57.9453C31.3086 57.2812 31.3737 56.666 31.5039 56.0996C31.6341 55.5332 31.8294 55.0352 32.0898 54.6055C32.3568 54.1758 32.6888 53.8405 33.0859 53.5996C33.4896 53.3587 33.9551 53.2383 34.4824 53.2383C34.6257 53.2383 34.7786 53.2513 34.9414 53.2773C35.1107 53.3034 35.2376 53.3327 35.3223 53.3652ZM42.1289 53.4336V55.1523H36.1719V53.4336H42.1289ZM37.8906 50.8457H40.2441V61.0801C40.2441 61.4056 40.2897 61.6562 40.3809 61.832C40.4785 62.0013 40.612 62.1152 40.7812 62.1738C40.9505 62.2324 41.1491 62.2617 41.377 62.2617C41.5397 62.2617 41.696 62.252 41.8457 62.2324C41.9954 62.2129 42.1159 62.1934 42.207 62.1738L42.2168 63.9707C42.0215 64.0293 41.7936 64.0814 41.5332 64.127C41.2793 64.1725 40.9863 64.1953 40.6543 64.1953C40.1139 64.1953 39.6354 64.1009 39.2188 63.9121C38.8021 63.7168 38.4766 63.401 38.2422 62.9648C38.0078 62.5286 37.8906 61.9492 37.8906 61.2266V50.8457ZM43.2617 58.834V58.6094C43.2617 57.8477 43.3724 57.1413 43.5938 56.4902C43.8151 55.8327 44.1341 55.263 44.5508 54.7812C44.974 54.293 45.4883 53.9154 46.0938 53.6484C46.7057 53.375 47.3958 53.2383 48.1641 53.2383C48.9388 53.2383 49.6289 53.375 50.2344 53.6484C50.8464 53.9154 51.3639 54.293 51.7871 54.7812C52.2103 55.263 52.5326 55.8327 52.7539 56.4902C52.9753 57.1413 53.0859 57.8477 53.0859 58.6094V58.834C53.0859 59.5957 52.9753 60.3021 52.7539 60.9531C52.5326 61.6042 52.2103 62.1738 51.7871 62.6621C51.3639 63.1439 50.8496 63.5215 50.2441 63.7949C49.6387 64.0618 48.9518 64.1953 48.1836 64.1953C47.4089 64.1953 46.7155 64.0618 46.1035 63.7949C45.498 63.5215 44.9837 63.1439 44.5605 62.6621C44.1374 62.1738 43.8151 61.6042 43.5938 60.9531C43.3724 60.3021 43.2617 59.5957 43.2617 58.834ZM45.6152 58.6094V58.834C45.6152 59.3092 45.6641 59.7585 45.7617 60.1816C45.8594 60.6048 46.0124 60.9759 46.2207 61.2949C46.429 61.6139 46.696 61.8646 47.0215 62.0469C47.347 62.2292 47.7344 62.3203 48.1836 62.3203C48.6198 62.3203 48.9974 62.2292 49.3164 62.0469C49.6419 61.8646 49.9089 61.6139 50.1172 61.2949C50.3255 60.9759 50.4785 60.6048 50.5762 60.1816C50.6803 59.7585 50.7324 59.3092 50.7324 58.834V58.6094C50.7324 58.1406 50.6803 57.6979 50.5762 57.2812C50.4785 56.8581 50.3223 56.4837 50.1074 56.1582C49.8991 55.8327 49.6322 55.5788 49.3066 55.3965C48.9876 55.2077 48.6068 55.1133 48.1641 55.1133C47.7214 55.1133 47.3372 55.2077 47.0117 55.3965C46.6927 55.5788 46.429 55.8327 46.2207 56.1582C46.0124 56.4837 45.8594 56.8581 45.7617 57.2812C45.6641 57.6979 45.6152 58.1406 45.6152 58.6094ZM57.4219 55.4648V68.0625H55.0684V53.4336H57.2363L57.4219 55.4648ZM64.3066 58.6191V58.8242C64.3066 59.5924 64.2155 60.3053 64.0332 60.9629C63.8574 61.6139 63.5938 62.1836 63.2422 62.6719C62.8971 63.1536 62.4707 63.528 61.9629 63.7949C61.4551 64.0618 60.8691 64.1953 60.2051 64.1953C59.5475 64.1953 58.9714 64.0749 58.4766 63.834C57.9883 63.5866 57.5749 63.2383 57.2363 62.7891C56.8978 62.3398 56.6243 61.8125 56.416 61.207C56.2142 60.5951 56.071 59.9245 55.9863 59.1953V58.4043C56.071 57.6296 56.2142 56.9264 56.416 56.2949C56.6243 55.6634 56.8978 55.1198 57.2363 54.6641C57.5749 54.2083 57.9883 53.8568 58.4766 53.6094C58.9648 53.362 59.5345 53.2383 60.1855 53.2383C60.8496 53.2383 61.4388 53.3685 61.9531 53.6289C62.4674 53.8828 62.9004 54.2474 63.252 54.7227C63.6035 55.1914 63.8672 55.7578 64.043 56.4219C64.2188 57.0794 64.3066 57.8118 64.3066 58.6191ZM61.9531 58.8242V58.6191C61.9531 58.1309 61.9076 57.6784 61.8164 57.2617C61.7253 56.8385 61.582 56.4674 61.3867 56.1484C61.1914 55.8294 60.9408 55.582 60.6348 55.4062C60.3353 55.224 59.974 55.1328 59.5508 55.1328C59.1341 55.1328 58.776 55.2044 58.4766 55.3477C58.1771 55.4844 57.9264 55.6764 57.7246 55.9238C57.5228 56.1712 57.3665 56.4609 57.2559 56.793C57.1452 57.1185 57.0671 57.4733 57.0215 57.8574V59.752C57.0996 60.2207 57.2331 60.6504 57.4219 61.041C57.6107 61.4316 57.8776 61.7441 58.2227 61.9785C58.5742 62.2064 59.0234 62.3203 59.5703 62.3203C59.9935 62.3203 60.3548 62.2292 60.6543 62.0469C60.9538 61.8646 61.1979 61.6139 61.3867 61.2949C61.582 60.9694 61.7253 60.5951 61.8164 60.1719C61.9076 59.7487 61.9531 59.2995 61.9531 58.8242ZM70.9668 64.1953C70.1855 64.1953 69.4792 64.0684 68.8477 63.8145C68.2227 63.554 67.6888 63.1927 67.2461 62.7305C66.8099 62.2682 66.4746 61.7246 66.2402 61.0996C66.0059 60.4746 65.8887 59.8008 65.8887 59.0781V58.6875C65.8887 57.8607 66.0091 57.112 66.25 56.4414C66.4909 55.7708 66.8262 55.1979 67.2559 54.7227C67.6855 54.2409 68.1934 53.873 68.7793 53.6191C69.3652 53.3652 70 53.2383 70.6836 53.2383C71.4388 53.2383 72.0996 53.3652 72.666 53.6191C73.2324 53.873 73.7012 54.2311 74.0723 54.6934C74.4499 55.1491 74.7298 55.6927 74.9121 56.3242C75.1009 56.9557 75.1953 57.6523 75.1953 58.4141V59.4199H67.0312V57.7305H72.8711V57.5449C72.8581 57.1217 72.7734 56.7246 72.6172 56.3535C72.4674 55.9824 72.2363 55.6829 71.9238 55.4551C71.6113 55.2272 71.1947 55.1133 70.6738 55.1133C70.2832 55.1133 69.9349 55.1979 69.6289 55.3672C69.3294 55.5299 69.0788 55.7676 68.877 56.0801C68.6751 56.3926 68.5189 56.7702 68.4082 57.2129C68.304 57.6491 68.252 58.1406 68.252 58.6875V59.0781C68.252 59.5404 68.3138 59.9701 68.4375 60.3672C68.5677 60.7578 68.7565 61.0996 69.0039 61.3926C69.2513 61.6855 69.5508 61.9167 69.9023 62.0859C70.2539 62.2487 70.6543 62.3301 71.1035 62.3301C71.6699 62.3301 72.1745 62.2161 72.6172 61.9883C73.0599 61.7604 73.444 61.4382 73.7695 61.0215L75.0098 62.2227C74.7819 62.5547 74.4857 62.8737 74.1211 63.1797C73.7565 63.4792 73.3105 63.7233 72.7832 63.9121C72.2624 64.1009 71.6569 64.1953 70.9668 64.1953ZM83.4766 61.8125V49H85.8398V64H83.7012L83.4766 61.8125ZM76.6016 58.834V58.6289C76.6016 57.8281 76.696 57.099 76.8848 56.4414C77.0736 55.7773 77.347 55.2077 77.7051 54.7324C78.0632 54.2507 78.4993 53.8828 79.0137 53.6289C79.528 53.3685 80.1074 53.2383 80.752 53.2383C81.39 53.2383 81.9499 53.362 82.4316 53.6094C82.9134 53.8568 83.3236 54.2116 83.6621 54.6738C84.0007 55.1296 84.2708 55.6764 84.4727 56.3145C84.6745 56.946 84.8177 57.6491 84.9023 58.4238V59.0781C84.8177 59.8333 84.6745 60.5234 84.4727 61.1484C84.2708 61.7734 84.0007 62.3138 83.6621 62.7695C83.3236 63.2253 82.9102 63.5768 82.4219 63.8242C81.9401 64.0716 81.377 64.1953 80.7324 64.1953C80.0944 64.1953 79.5182 64.0618 79.0039 63.7949C78.4961 63.528 78.0632 63.1536 77.7051 62.6719C77.347 62.1901 77.0736 61.6237 76.8848 60.9727C76.696 60.3151 76.6016 59.6022 76.6016 58.834ZM78.9551 58.6289V58.834C78.9551 59.3158 78.9974 59.765 79.082 60.1816C79.1732 60.5983 79.3132 60.9661 79.502 61.2852C79.6908 61.5977 79.9349 61.8451 80.2344 62.0273C80.5404 62.2031 80.9049 62.291 81.3281 62.291C81.862 62.291 82.3014 62.1738 82.6465 61.9395C82.9915 61.7051 83.2617 61.3893 83.457 60.9922C83.6589 60.5885 83.7956 60.1393 83.8672 59.6445V57.877C83.8281 57.4928 83.7467 57.1348 83.623 56.8027C83.5059 56.4707 83.3464 56.181 83.1445 55.9336C82.9427 55.6797 82.6921 55.4844 82.3926 55.3477C82.0996 55.2044 81.7513 55.1328 81.3477 55.1328C80.918 55.1328 80.5534 55.224 80.2539 55.4062C79.9544 55.5885 79.707 55.8392 79.5117 56.1582C79.3229 56.4772 79.1829 56.8483 79.0918 57.2715C79.0007 57.6947 78.9551 58.1471 78.9551 58.6289ZM90.8203 53.4336V64H88.457V53.4336H90.8203ZM88.3008 50.6602C88.3008 50.3021 88.418 50.0059 88.6523 49.7715C88.8932 49.5306 89.2253 49.4102 89.6484 49.4102C90.0651 49.4102 90.3939 49.5306 90.6348 49.7715C90.8757 50.0059 90.9961 50.3021 90.9961 50.6602C90.9961 51.0117 90.8757 51.3047 90.6348 51.5391C90.3939 51.7734 90.0651 51.8906 89.6484 51.8906C89.2253 51.8906 88.8932 51.7734 88.6523 51.5391C88.418 51.3047 88.3008 51.0117 88.3008 50.6602ZM99.3555 61.8809V56.8418C99.3555 56.4642 99.2871 56.1387 99.1504 55.8652C99.0137 55.5918 98.8053 55.3802 98.5254 55.2305C98.252 55.0807 97.9069 55.0059 97.4902 55.0059C97.1061 55.0059 96.7741 55.071 96.4941 55.2012C96.2142 55.3314 95.9961 55.5072 95.8398 55.7285C95.6836 55.9499 95.6055 56.2005 95.6055 56.4805H93.2617C93.2617 56.0638 93.3626 55.6602 93.5645 55.2695C93.7663 54.8789 94.0592 54.5306 94.4434 54.2246C94.8275 53.9186 95.2865 53.6777 95.8203 53.502C96.3542 53.3262 96.9531 53.2383 97.6172 53.2383C98.4115 53.2383 99.1146 53.3717 99.7266 53.6387C100.345 53.9056 100.83 54.3092 101.182 54.8496C101.54 55.3835 101.719 56.054 101.719 56.8613V61.5586C101.719 62.0404 101.751 62.4733 101.816 62.8574C101.888 63.235 101.989 63.5638 102.119 63.8438V64H99.707C99.5964 63.7461 99.5085 63.4238 99.4434 63.0332C99.3848 62.6361 99.3555 62.252 99.3555 61.8809ZM99.6973 57.5742L99.7168 59.0293H98.0273C97.5911 59.0293 97.207 59.0716 96.875 59.1562C96.543 59.2344 96.2663 59.3516 96.0449 59.5078C95.8236 59.6641 95.6576 59.8529 95.5469 60.0742C95.4362 60.2956 95.3809 60.5462 95.3809 60.8262C95.3809 61.1061 95.446 61.3633 95.5762 61.5977C95.7064 61.8255 95.8952 62.0046 96.1426 62.1348C96.3965 62.265 96.7025 62.3301 97.0605 62.3301C97.5423 62.3301 97.9622 62.2324 98.3203 62.0371C98.6849 61.8353 98.9714 61.5911 99.1797 61.3047C99.388 61.0117 99.4987 60.735 99.5117 60.4746L100.273 61.5195C100.195 61.7865 100.062 62.0729 99.873 62.3789C99.6842 62.6849 99.4368 62.9779 99.1309 63.2578C98.8314 63.5312 98.4701 63.7559 98.0469 63.9316C97.6302 64.1074 97.1484 64.1953 96.6016 64.1953C95.9115 64.1953 95.2962 64.0586 94.7559 63.7852C94.2155 63.5052 93.7923 63.1309 93.4863 62.6621C93.1803 62.1868 93.0273 61.6497 93.0273 61.0508C93.0273 60.4909 93.1315 59.9961 93.3398 59.5664C93.5547 59.1302 93.8672 58.7656 94.2773 58.4727C94.694 58.1797 95.2018 57.9583 95.8008 57.8086C96.3997 57.6523 97.0833 57.5742 97.8516 57.5742H99.6973Z" fill="white"/>
</svg>
